# xmcd
#
# Track frame offsets: 
#        150
#        17045
#        36845
#        52877
#        73920
#        86291
#        103213
#        120001
#        133321
#        150863
#        173217
#        186616
#        202285
#        223959
#        244477
#        262996
#        281545
#        294384
#
# Disc length: 4131 seconds
#
# Revision: 2
# Processed by: cddbd v1.5.2PL0 Copyright (c) Steve Scherf et al.
# Submitted via: ExactAudioCopy v0.95b4
#
DISCID=12102112
DTITLE=Paul Weller - Days of Speed
DYEAR=1900
DGENRE=
TTITLE0=Brand New Start
TTITLE1=The Loved
TTITLE2=Out of the Sinking
TTITLE3=Clues
TTITLE4=English Rose
TTITLE5=Above the Clouds
TTITLE6=You Do Something to Me
TTITLE7=Amongst Butterflies
TTITLE8=Science
TTITLE9=Back in the Fire
TTITLE10=Down in the Seine
TTITLE11=That's Entertainment
TTITLE12=Love-less
TTITLE13=There's No Drinking after You're Dead
TTITLE14=Everything Has a Price to Pay
TTITLE15=Wild Wood
TTITLE16=Headstart for Happiness
TTITLE17=Town Called Malice
EXTD=
EXTT0=
EXTT1=
EXTT2=
EXTT3=
EXTT4=
EXTT5=
EXTT6=
EXTT7=
EXTT8=
EXTT9=
EXTT10=
EXTT11=
EXTT12=
EXTT13=
EXTT14=
EXTT15=
EXTT16=
EXTT17=
PLAYORDER=
